<mxfile host="app.diagrams.net" modified="2023-09-05T11:11:11.681Z" agent="Mozilla/5.0 (Windows NT 10.0; Win64; x64) AppleWebKit/537.36 (KHTML, like Gecko) Chrome/116.0.0.0 Safari/537.36 Edg/116.0.1938.69" etag="v_XktOQs6hVUdVn3lwSS" version="21.7.2" type="github">
  <diagram name="第 1 页" id="YKOS1fqJZ7-1_1bdhY2_">
    <mxGraphModel dx="1140" dy="764" grid="1" gridSize="10" guides="1" tooltips="1" connect="1" arrows="1" fold="1" page="1" pageScale="1" pageWidth="1169" pageHeight="827" math="0" shadow="0">
      <root>
        <mxCell id="0" />
        <mxCell id="1" parent="0" />
        <mxCell id="rFYBBZAon6ef2atkhW62-1" value="单项1&lt;br&gt;单项2&lt;br&gt;单项3&lt;br&gt;单项4&lt;br&gt;单项5&lt;br&gt;单项6&lt;br&gt;单项7" style="rounded=1;whiteSpace=wrap;html=1;fillColor=#dae8fc;strokeColor=#6c8ebf;" vertex="1" parent="1">
          <mxGeometry x="90" y="110" width="130" height="130" as="geometry" />
        </mxCell>
      </root>
    </mxGraphModel>
  </diagram>
</mxfile>
